<svg width="200px" height="200px" viewBox="0 0 56 56" xmlns="http://www.w3.org/2000/svg">
  <path d="M52.1202 27.8974V27.9578C52.1259 32.3913 51.0518 36.7595 48.9907 40.6849L48.0008 42.4229C45.5423 46.3864 42.1124 49.6565 38.0361 51.9232C33.9599 54.1899 29.3723 55.3782 24.7083 55.3754V41.7024C28.355 41.7024 31.8523 40.2537 34.431 37.6751C37.0096 35.0965 38.4583 31.5991 38.4583 27.9524V27.8918L52.1202 27.8974Z" fill="currentColor"></path>
  <path d="M49.6231 0.375244L18.1741 55.3257H0.788574L32.2376 0.375244H49.6231Z" fill="currentColor"></path>
  <path d="M48.9467 23.3323H48.6222V21.5173H47.9622V21.2258H49.6122V21.5173H48.9302L48.9467 23.3323Z" fill="currentColor"></path>
  <path d="M50.8771 23.3323L50.2116 21.7208V23.3323H49.9146V21.2258H50.3106L51.0201 22.9364L51.7241 21.2258H52.1201V23.3323H51.8121V21.7208L51.1521 23.3323H50.8771Z" fill="currentColor"></path>
</svg>
