<svg width="201" height="201" viewBox="0 0 201 201" fill="none" xmlns="http://www.w3.org/2000/svg">
<g clip-path="url(#clip0_63_5140)">
<path d="M140.609 133.962C123.09 132.074 108.002 136.414 90.5726 136.071C72.6884 70.2482 71.8976 66.7033 64.9542 43.1356L65.2181 43.2255C139.68 48.7138 122.657 19.1672 148.486 116.752C149.552 120.853 153.5 125.976 152.553 130.079C151.201 136.216 146.213 134.573 140.609 133.962Z" fill="url(#paint0_linear_63_5140)"/>
<path d="M76.7654 155.555C76.1684 154.3 75.8249 154.482 75.3973 153.531C75.3606 153.506 75.3238 153.48 75.3676 153.417C71.325 146.946 48.0144 76.2301 47.6148 61.5188C47.413 53.1182 56.2735 46.3925 63.8137 43.6032C86.2039 121.938 83.0812 108.043 89.723 136.041C89.6646 136.047 89.6646 136.047 89.606 136.053L89.7973 136.326C89.7675 136.212 89.7527 136.155 89.723 136.041C89.994 136.043 90.3017 136.07 90.5725 136.071L90.7722 136.723C81.1763 138.53 75.9639 151.77 76.7654 155.555Z" fill="url(#paint1_linear_63_5140)"/>
<path d="M143.975 155.799C143.747 156.427 127.219 154.351 125.421 154.385C119.883 154.489 114.321 154.452 108.743 154.273C77.7064 153.28 77.4229 159.738 75.3973 153.531C75.8249 154.482 76.1684 154.3 76.7654 155.555C75.8942 151.44 81.4741 138.474 90.7722 136.723L90.5725 136.071C107.929 136.413 123.146 132.08 140.609 133.962C145.311 134.475 150.009 136.012 151.951 131.807C148.506 139.266 146.8 148.008 143.975 155.799Z" fill="#494949"/>
<path d="M145.329 156.289C148.092 148.665 149.792 140.15 153.073 132.849C156.291 126.861 151.144 121.246 149.878 116.384C146.885 105.077 144.468 95.4775 142.417 87.3335C135.596 60.2465 132.774 49.0346 126.11 44.4052C117.243 38.2449 103.062 44.5981 65.4216 41.7732C64.9272 41.6043 64.3522 41.6919 63.9142 42.1701C61.9293 42.0282 45.8838 49.4762 46.1757 61.558C46.5618 75.814 71.5966 154.13 75.8826 157.107C77.1692 158.001 78.6407 157.751 81.5721 157.253C98.0716 154.445 106.583 156.181 125.449 155.824C126.022 155.815 128.899 156.11 131.682 156.396C144.802 157.743 144.842 157.634 145.329 156.289ZM124.467 46.7705C130.244 50.7837 132.991 61.6899 139.625 88.0376C147.909 120.94 147.29 118.228 149.041 121.987C155.069 134.902 147.808 133.299 140.764 132.53C123.508 130.67 108.788 134.768 91.6728 134.624C75.8661 76.3152 72.9493 65.2312 66.9433 44.7909C102.626 47.1975 116.992 41.5773 124.467 46.7705ZM49.0552 61.4848C48.8874 54.5465 55.8478 48.5398 62.8663 45.5304C84.4667 121.059 81.7958 108.873 88.1861 135.82C88.1785 135.869 88.1719 135.918 88.1695 135.968C84.294 137.438 81.3979 140.428 79.1513 143.851C76.621 147.757 75.9528 150.752 75.8099 151.107C70.45 139.195 49.4294 75.3283 49.0552 61.4848ZM81.0889 154.414C79.9295 154.611 78.8186 154.799 78.1386 154.821C78.059 153.057 79.1551 149.066 81.6653 145.254C86.7963 137.566 90.9951 138.971 91.966 137.53C96.8353 137.556 103.24 137.098 107.321 136.709C147.089 132.941 141.917 137.153 148.71 135.947C146.489 142.07 145.005 148.506 142.915 154.482C140.732 154.446 105.98 150.178 81.0889 154.414Z" fill="black"/>
<path d="M111.285 67.3128C112.076 67.2269 112.648 66.5177 112.564 65.7266C112.477 64.935 111.769 64.3644 110.978 64.4483C105.217 65.0678 99.3918 65.8515 93.6673 66.7787C92.882 66.906 92.3482 67.6448 92.4755 68.4302C92.6031 69.215 93.3414 69.749 94.127 69.6219C99.8014 68.7027 105.575 67.9263 111.285 67.3128ZM123.77 76.4648C123.682 75.6732 122.974 75.1026 122.183 75.1865C110.397 76.4521 98.4827 78.0569 86.7697 79.9539C85.9843 80.0812 85.4505 80.82 85.5779 81.6053C85.7054 82.3902 86.4437 82.9242 87.2293 82.7971C98.8923 80.9082 110.755 79.3106 122.491 78.0511C123.282 77.9652 123.853 77.256 123.77 76.4648ZM87.8138 94.0111C87.9414 94.7959 88.6797 95.3299 89.4653 95.2028C101.144 93.3111 113.007 91.7154 124.727 90.4568C125.518 90.3709 126.089 89.6617 126.005 88.8706C125.92 88.0798 125.209 87.5075 124.419 87.5923C112.649 88.857 100.734 90.461 89.0056 92.3596C88.2203 92.487 87.6865 93.2257 87.8138 94.0111ZM90.0478 106.417C90.1754 107.202 90.9137 107.736 91.6993 107.609C103.362 105.72 115.225 104.122 126.961 102.863C127.752 102.777 128.323 102.068 128.239 101.277C128.152 100.485 127.444 99.9156 126.653 99.9983C114.867 101.264 102.953 102.869 91.2396 104.766C90.4542 104.893 89.9205 105.632 90.0478 106.417Z" fill="black"/>
</g>
<defs>
<linearGradient id="paint0_linear_63_5140" x1="89.7818" y1="25.3505" x2="140.972" y2="140.362" gradientUnits="userSpaceOnUse">
<stop stop-color="#FFB0BD"/>
<stop offset="1" stop-color="#FFC2A1"/>
</linearGradient>
<linearGradient id="paint1_linear_63_5140" x1="62.9847" y1="47.0063" x2="108.996" y2="123.071" gradientUnits="userSpaceOnUse">
<stop stop-color="#FFB0BD"/>
<stop offset="1" stop-color="#FFC2A1"/>
</linearGradient>
<clipPath id="clip0_63_5140">
<rect width="144" height="144" fill="white" transform="translate(82.157) rotate(34.7875)"/>
</clipPath>
</defs>
</svg>
