<svg width="115" height="30" viewBox="0 0 115 30" fill="none" xmlns="http://www.w3.org/2000/svg">
<path d="M15.9895 1.70323H15.7973V1.89545V13.4879C14.43 11.1258 12.1309 9.77633 9.18507 9.77633C6.52062 9.77633 4.34198 10.7576 2.83176 12.485C1.32396 14.2096 0.49687 16.6609 0.49687 19.5794C0.49687 22.4984 1.3339 24.9501 2.86141 26.6747C4.39116 28.4018 6.59845 29.3824 9.3004 29.3824C12.2123 29.3824 14.4423 28.0322 15.7973 25.703V28.8058V29.2666L16.1248 28.9424L20.046 25.0596L20.103 25.0032V24.923V1.89545V1.70323H19.9108H15.9895ZM40.5078 24.4954L40.5821 24.3117L40.3962 24.243L36.8594 22.9359L36.6807 22.8698L36.6131 23.048C36.1972 24.1444 35.7271 24.8206 35.0714 25.231C34.4114 25.644 33.5332 25.8072 32.2565 25.8072C30.5496 25.8072 29.3498 25.4464 28.5409 24.6647C27.7609 23.9108 27.3109 22.7333 27.1594 21.0018H40.714H40.8964L40.906 20.8197C40.9447 20.0845 40.9447 19.7732 40.9447 19.195C40.9447 16.3284 40.0372 13.9712 38.4595 12.3294C36.8813 10.6871 34.6474 9.77633 32.0258 9.77633C29.3245 9.77633 27.0046 10.7659 25.3606 12.4984C23.7173 14.2304 22.761 16.6922 22.761 19.6178C22.761 22.5609 23.6875 25.0051 25.3428 26.7146C26.9986 28.4247 29.3674 29.3824 32.218 29.3824C36.0382 29.3824 39.1627 27.8183 40.5078 24.4954ZM43.5567 28.8058V28.998H43.7489H47.6702H47.8624V28.8058V1.89545V1.70323H47.6702H43.7489H43.5567V1.89545V28.8058ZM57.0422 3.89013V3.89003L51.4679 3.8945L51.2758 3.89887C51.2758 3.8989 51.2758 3.89894 51.2758 3.89897C51.2958 4.77958 51.5571 5.49577 52.0584 5.99175C52.56 6.48808 53.2771 6.73931 54.159 6.73931C55.0765 6.73931 55.8141 6.4896 56.3173 5.99175C56.8214 5.49293 57.0622 4.77272 57.0422 3.89013ZM51.9677 28.8058V28.998H52.1599H56.0811H56.2734V28.8058V10.353V10.1608H56.0811H52.1599H51.9677V10.353V28.8058ZM64.6843 28.8058V25.703C66.0393 28.0322 68.2694 29.3824 71.1813 29.3824C73.8832 29.3824 76.0905 28.4018 77.6203 26.6747C79.1478 24.9501 79.9848 22.4984 79.9848 19.5794C79.9848 16.6609 79.1577 14.2096 77.6499 12.485C76.1397 10.7576 73.9611 9.77633 71.2966 9.77633C68.3508 9.77633 66.0517 11.1258 64.6843 13.4879V1.89545V1.70323H64.4921H60.5709H60.3787V1.89545V28.8058V28.998H60.5709H64.4921H64.6843V28.8058ZM88.3058 11.6368C87.6914 12.363 87.2566 13.2515 86.9484 14.2025V10.353V10.1608H86.7562H82.835H82.6428V10.353V28.8058V28.998H82.835H86.7562H86.9484V28.8058V20.8096C86.9484 18.6625 87.4239 16.92 88.3093 15.7194C89.1892 14.5262 90.4857 13.8513 92.1767 13.8513C93.53 13.8513 94.0808 14.0747 94.5999 14.2971L94.8678 14.4119V14.1204V10.3145V10.1921L94.7569 10.1404C94.1359 9.85059 93.2863 9.81478 92.4843 9.81478C90.5834 9.81478 89.2415 10.5309 88.3058 11.6368ZM110.079 10.1608H109.887V10.353V13.4503C108.519 11.0926 106.219 9.77633 103.274 9.77633C100.629 9.77633 98.4596 10.7579 96.9544 12.4852C95.4516 14.2098 94.6245 16.6609 94.6245 19.5794C94.6245 22.4984 95.4615 24.9501 96.989 26.6747C98.5188 28.4018 100.726 29.3824 103.428 29.3824C106.304 29.3824 108.531 28.0651 109.887 25.7698V28.8058V28.998H110.079H114H114.192V28.8058V10.353V10.1608H114H110.079ZM10.3768 25.4228C8.46457 25.4228 7.09285 24.9496 6.19598 24.0072C5.29724 23.0629 4.84097 21.6116 4.84097 19.5794C4.84097 17.5472 5.29724 16.0959 6.19598 15.1516C7.09285 14.2092 8.46457 13.736 10.3768 13.736C12.3088 13.736 13.6901 14.2094 14.5916 15.1519C15.4948 16.0962 15.9511 17.5472 15.9511 19.5794C15.9511 21.6116 15.4948 23.0626 14.5916 24.0069C13.6901 24.9494 12.3088 25.4228 10.3768 25.4228ZM32.0643 13.2362C33.6372 13.2362 34.7289 13.5685 35.4503 14.2944C36.146 14.9944 36.5325 16.0954 36.629 17.7341H27.205C27.3944 16.1985 27.8749 15.0965 28.6362 14.37C29.4301 13.6124 30.5578 13.2362 32.0643 13.2362ZM70.1049 25.4228C68.1729 25.4228 66.7916 24.9494 65.8901 24.0069C64.9868 23.0626 64.5306 21.6116 64.5306 19.5794C64.5306 17.5472 64.9868 16.0962 65.8901 15.1519C66.7916 14.2094 68.1729 13.736 70.1049 13.736C72.0171 13.736 73.3888 14.2092 74.2857 15.1516C75.1844 16.0959 75.6407 17.5472 75.6407 19.5794C75.6407 21.6116 75.1844 23.0629 74.2857 24.0072C73.3888 24.9496 72.0171 25.4228 70.1049 25.4228ZM104.504 25.4228C102.572 25.4228 101.201 24.9494 100.31 24.0076C99.4157 23.0636 98.9686 21.6125 98.9686 19.5794C98.9686 17.5463 99.4157 16.0952 100.31 15.1512C101.201 14.2094 102.572 13.736 104.504 13.736C106.436 13.736 107.818 14.2094 108.719 15.1519C109.622 16.0962 110.079 17.5472 110.079 19.5794C110.079 21.6116 109.622 23.0626 108.719 24.0069C107.818 24.9494 106.436 25.4228 104.504 25.4228Z" fill="white" stroke="white" stroke-width="0.384434"/>
</svg>
