<svg width="127" height="25" viewBox="0 0 127 25" fill="none" xmlns="http://www.w3.org/2000/svg">
<path d="M25.5331 5.38975H25.235C24.8581 5.38975 24.4911 5.39745 24.1342 5.41285V2.79239C24.1341 2.75198 24.1249 2.71211 24.1071 2.67579C24.0894 2.63947 24.0637 2.60765 24.0319 2.58273C24 2.55781 23.963 2.54044 23.9235 2.53194C23.884 2.52344 23.843 2.52402 23.8038 2.53364C22.931 2.76117 22.0708 3.03435 21.2267 3.35206V1.26644C21.2266 1.22618 21.2174 1.18646 21.1998 1.15025C21.1822 1.11404 21.1566 1.08228 21.125 1.05736C21.0935 1.03231 21.0566 1.01481 21.0173 1.0062C20.9779 0.997594 20.9371 0.998102 20.898 1.00769C20.8403 1.02155 15.2649 2.41466 13.3982 7.39739C11.5315 2.41466 5.95732 1.02155 5.89841 1.00769C5.8593 0.998014 5.81849 0.997462 5.77913 1.00607C5.73977 1.01469 5.70292 1.03223 5.67142 1.05736C5.6398 1.08228 5.61423 1.11404 5.59663 1.15025C5.57902 1.18646 5.56984 1.22618 5.56977 1.26644V3.35206C4.72571 3.03414 3.86547 2.76095 2.99263 2.53364C2.95338 2.52402 2.91246 2.52344 2.87295 2.53194C2.83344 2.54044 2.79638 2.55781 2.76456 2.58273C2.73275 2.60765 2.70701 2.63947 2.68928 2.67579C2.67156 2.71211 2.66232 2.75198 2.66226 2.79239V5.41169C2.21175 5.39244 1.74546 5.38512 1.26337 5.38975C1.19326 5.39051 1.12627 5.41889 1.07696 5.46874C1.02765 5.5186 0.999996 5.58589 1 5.65601V22.0689C1.00015 22.1112 1.01036 22.1529 1.02977 22.1905C1.04919 22.228 1.07726 22.2605 1.11167 22.2851C1.14609 22.3097 1.18585 22.3257 1.22769 22.3319C1.26953 22.3381 1.31225 22.3343 1.35232 22.3208C1.41008 22.3011 7.26264 20.3813 11.7013 24.582C11.7128 24.5922 11.7249 24.6017 11.7377 24.6103L11.7429 24.6132C11.7556 24.621 11.7689 24.6278 11.7827 24.6334H11.7879C11.802 24.6388 11.8165 24.6431 11.8313 24.6461H11.8388C11.854 24.6486 11.8695 24.6499 11.885 24.6501H14.9115C14.9269 24.65 14.9424 24.6486 14.9577 24.6461H14.9617C14.9765 24.6431 14.991 24.6388 15.005 24.6334H15.0102C15.0243 24.6278 15.0378 24.621 15.0507 24.6132L15.0553 24.6103C15.0683 24.6018 15.0807 24.5923 15.0922 24.582C19.5309 20.3813 25.3829 22.3011 25.4418 22.3208C25.4819 22.3343 25.5246 22.3381 25.5664 22.3319C25.6083 22.3257 25.648 22.3097 25.6824 22.2851C25.7169 22.2605 25.7449 22.228 25.7643 22.1905C25.7838 22.1529 25.794 22.1112 25.7941 22.0689V5.65601C25.7941 5.58628 25.7668 5.51933 25.718 5.46955C25.6692 5.41976 25.6028 5.39111 25.5331 5.38975ZM23.6011 5.43942C18.9522 5.73225 16.0926 7.2143 15.1234 7.80747C17.2564 5.07381 22.2674 3.51667 23.6011 3.14125V5.43942ZM20.6936 1.62281V3.5571C18.467 4.44021 15.6456 5.90494 14.3402 7.99634H13.7552C15.1309 3.65933 19.4627 2.00863 20.6936 1.62281ZM3.19536 3.14009C4.52898 3.51552 9.54175 5.07323 11.6742 7.80805C10.7038 7.21777 7.84137 5.73571 3.19536 5.43999V3.14009ZM1.53252 21.716V5.92054H1.55332C7.49829 5.92054 10.9741 7.98536 11.6181 8.40411V23.7942C7.66232 20.4517 2.85806 21.3758 1.53252 21.716ZM12.1512 8.52944H14.6452V24.1239H12.1512V8.52944Z" fill="url(#paint0_linear_737_2090)"/>
<path d="M6.10229 1.62281C7.33368 2.00689 11.6655 3.65298 13.0413 7.99634H12.4562M15.176 23.7953C19.1318 20.4523 23.9337 21.373 25.2622 21.716V5.92054H25.2396M25.5331 5.38975H25.235C24.8581 5.38975 24.4911 5.39745 24.1342 5.41285V2.79239C24.1341 2.75198 24.1249 2.71211 24.1071 2.67579C24.0894 2.63947 24.0637 2.60765 24.0319 2.58273C24 2.55781 23.963 2.54044 23.9235 2.53194C23.884 2.52344 23.843 2.52402 23.8038 2.53364C22.931 2.76117 22.0708 3.03435 21.2267 3.35206V1.26644C21.2266 1.22618 21.2174 1.18646 21.1998 1.15025C21.1822 1.11404 21.1566 1.08228 21.125 1.05736C21.0935 1.03231 21.0566 1.01481 21.0173 1.0062C20.9779 0.997594 20.9371 0.998102 20.898 1.00769C20.8403 1.02155 15.2649 2.41466 13.3982 7.39739C11.5315 2.41466 5.95732 1.02155 5.89841 1.00769C5.8593 0.998014 5.81849 0.997462 5.77913 1.00607C5.73977 1.01469 5.70292 1.03223 5.67142 1.05736C5.6398 1.08228 5.61423 1.11404 5.59663 1.15025C5.57902 1.18646 5.56984 1.22618 5.56977 1.26644V3.35206C4.72571 3.03414 3.86547 2.76095 2.99263 2.53364C2.95338 2.52402 2.91246 2.52344 2.87295 2.53194C2.83344 2.54044 2.79638 2.55781 2.76456 2.58273C2.73275 2.60765 2.70701 2.63947 2.68928 2.67579C2.67156 2.71211 2.66232 2.75198 2.66226 2.79239V5.41169C2.21175 5.39244 1.74546 5.38512 1.26337 5.38975C1.19326 5.39051 1.12627 5.41889 1.07696 5.46874C1.02765 5.5186 0.999996 5.58589 1 5.65601V22.0689C1.00015 22.1112 1.01036 22.1529 1.02977 22.1905C1.04919 22.228 1.07726 22.2605 1.11167 22.2851C1.14609 22.3097 1.18585 22.3257 1.22769 22.3319C1.26953 22.3381 1.31225 22.3343 1.35232 22.3208C1.41008 22.3011 7.26264 20.3813 11.7013 24.582C11.7128 24.5922 11.7249 24.6017 11.7377 24.6103L11.7429 24.6132C11.7556 24.621 11.7689 24.6278 11.7827 24.6334H11.7879C11.802 24.6388 11.8165 24.6431 11.8313 24.6461H11.8388C11.854 24.6486 11.8695 24.6499 11.885 24.6501H14.9115C14.9269 24.65 14.9424 24.6486 14.9577 24.6461H14.9617C14.9765 24.6431 14.991 24.6388 15.005 24.6334H15.0102C15.0243 24.6278 15.0378 24.621 15.0507 24.6132L15.0553 24.6103C15.0683 24.6018 15.0807 24.5923 15.0922 24.582C19.5309 20.3813 25.3829 22.3011 25.4418 22.3208C25.4819 22.3343 25.5246 22.3381 25.5664 22.3319C25.6083 22.3257 25.648 22.3097 25.6824 22.2851C25.7169 22.2605 25.7449 22.228 25.7643 22.1905C25.7838 22.1529 25.794 22.1112 25.7941 22.0689V5.65601C25.7941 5.58628 25.7668 5.51933 25.718 5.46955C25.6692 5.41976 25.6028 5.39111 25.5331 5.38975ZM23.6011 5.43942C18.9522 5.73225 16.0926 7.2143 15.1234 7.80747C17.2564 5.07381 22.2674 3.51667 23.6011 3.14125V5.43942ZM20.6936 1.62281V3.5571C18.467 4.44021 15.6456 5.90494 14.3402 7.99634H13.7552C15.1309 3.65933 19.4627 2.00863 20.6936 1.62281ZM3.19536 3.14009C4.52898 3.51552 9.54175 5.07323 11.6742 7.80805C10.7038 7.21777 7.84137 5.73571 3.19536 5.43999V3.14009ZM1.53252 21.716V5.92054H1.55332C7.49829 5.92054 10.9741 7.98536 11.6181 8.40411V23.7942C7.66232 20.4517 2.85806 21.3758 1.53252 21.716ZM12.1512 8.52944H14.6452V24.1239H12.1512V8.52944Z" stroke="white" stroke-width="0.642865"/>
<path d="M73.5549 3.12511C73.5716 3.86145 73.7901 4.4603 74.2092 4.87501C74.6286 5.29 75.2282 5.50006 75.9656 5.50006C76.7328 5.50006 77.3495 5.29127 77.7701 4.87501C78.1917 4.45794 78.393 3.85575 78.3763 3.11781L78.3763 3.11772C78.3595 2.39624 78.1402 1.81992 77.7188 1.42513C77.2984 1.03133 76.6995 0.839284 75.9656 0.839284C75.217 0.839284 74.6018 1.03059 74.1768 1.42456C73.7493 1.82089 73.538 2.40028 73.5549 3.12511ZM73.5549 3.12511L73.7155 3.12146M73.5549 3.12511C73.5549 3.12514 73.5549 3.12517 73.5549 3.12519L73.7155 3.12146M73.7155 3.12146C73.7477 4.53576 74.5513 5.33934 75.9656 5.33934C77.4442 5.33934 78.2477 4.53576 78.2156 3.12146H73.7155ZM44.0513 1.28929H43.8906V1.45001V11.1427C42.7474 9.16771 40.8251 8.03938 38.362 8.03938C36.1342 8.03938 34.3126 8.85987 33.0498 10.3042C31.7891 11.7461 31.0976 13.7957 31.0976 16.2359C31.0976 18.6766 31.7974 20.7265 33.0746 22.1684C34.3537 23.6125 36.1992 24.4324 38.4584 24.4324C40.8931 24.4324 42.7577 23.3034 43.8906 21.356V23.9503V24.3356L44.1644 24.0645L47.443 20.818L47.4907 20.7709V20.7038V1.45001V1.28929H47.3299H44.0513ZM64.5515 20.3463L64.6137 20.1927L64.4582 20.1352L61.5011 19.0423L61.3516 18.9871L61.2951 19.1361C60.9474 20.0528 60.5543 20.6182 60.0061 20.9613C59.4542 21.3067 58.72 21.4431 57.6524 21.4431C56.2253 21.4431 55.2221 21.1414 54.5458 20.4878C53.8936 19.8575 53.5173 18.873 53.3907 17.4252H64.724H64.8764L64.8845 17.2729C64.9168 16.6582 64.9168 16.3979 64.9168 15.9145C64.9168 13.5177 64.1581 11.5468 62.8389 10.174C61.5194 8.80086 59.6516 8.03938 57.4596 8.03938C55.2009 8.03938 53.2612 8.86677 51.8867 10.3154C50.5126 11.7635 49.7131 13.8219 49.7131 16.2681C49.7131 18.7288 50.4877 20.7725 51.8717 22.2018C53.2562 23.6316 55.2368 24.4324 57.6203 24.4324C60.8144 24.4324 63.4269 23.1247 64.5515 20.3463ZM67.1008 23.9503V24.111H67.2615H70.5401H70.7009V23.9503V1.45001V1.28929H70.5401H67.2615H67.1008V1.45001V23.9503ZM74.1334 23.9503V24.111H74.2941H77.5727H77.7334V23.9503V8.52153V8.36081H77.5727H74.2941H74.1334V8.52153V23.9503ZM84.766 23.9503V21.356C85.899 23.3034 87.7636 24.4324 90.1983 24.4324C92.4574 24.4324 94.303 23.6125 95.582 22.1684C96.8592 20.7265 97.5591 18.6766 97.5591 16.2359C97.5591 13.7957 96.8675 11.7461 95.6068 10.3042C94.3441 8.85987 92.5225 8.03938 90.2947 8.03938C87.8316 8.03938 85.9093 9.16771 84.766 11.1427V1.45001V1.28929H84.6053H81.3267H81.166V1.45001V23.9503V24.111H81.3267H84.6053H84.766V23.9503ZM104.516 9.59496C104.003 10.2021 103.639 10.945 103.382 11.7402V8.52153V8.36081H103.221H99.9422H99.7815V8.52153V23.9503V24.111H99.9422H103.221H103.382V23.9503V17.2645C103.382 15.4692 103.779 14.0123 104.519 13.0085C105.255 12.0109 106.339 11.4466 107.753 11.4466C108.884 11.4466 109.345 11.6333 109.779 11.8193L110.003 11.9153V11.6716V8.48938V8.38703L109.91 8.34374C109.391 8.10146 108.681 8.07152 108.01 8.07152C106.421 8.07152 105.299 8.67032 104.516 9.59496ZM122.721 8.36081H122.561V8.52153V11.1112C121.417 9.13991 119.494 8.03938 117.032 8.03938C114.82 8.03938 113.006 8.86012 111.748 10.3044C110.491 11.7463 109.8 13.7957 109.8 16.2359C109.8 18.6766 110.499 20.7265 111.777 22.1684C113.056 23.6125 114.901 24.4324 117.16 24.4324C119.565 24.4324 121.427 23.331 122.561 21.4118V23.9503V24.111H122.721H126H126.161V23.9503V8.52153V8.36081H126H122.721ZM39.3584 21.1217C37.7595 21.1217 36.6126 20.7261 35.8627 19.9381C35.1113 19.1485 34.7298 17.935 34.7298 16.2359C34.7298 14.5368 35.1113 13.3233 35.8627 12.5337C36.6126 11.7458 37.7595 11.3501 39.3584 11.3501C40.9738 11.3501 42.1287 11.746 42.8825 12.534C43.6377 13.3235 44.0192 14.5368 44.0192 16.2359C44.0192 17.9351 43.6377 19.1483 42.8825 19.9378C42.1287 20.7259 40.9738 21.1217 39.3584 21.1217ZM57.4917 10.9323C58.8069 10.9323 59.7197 11.2101 60.3229 11.817C60.9046 12.4023 61.2277 13.3229 61.3084 14.693H53.4288C53.5871 13.409 53.9889 12.4876 54.6254 11.8802C55.2892 11.2468 56.2322 10.9323 57.4917 10.9323ZM89.2982 21.1217C87.6829 21.1217 86.5279 20.7259 85.7742 19.9378C85.019 19.1483 84.6375 17.9351 84.6375 16.2359C84.6375 14.5368 85.019 13.3235 85.7742 12.534C86.5279 11.746 87.6829 11.3501 89.2982 11.3501C90.8971 11.3501 92.044 11.7458 92.7939 12.5337C93.5454 13.3233 93.9269 14.5368 93.9269 16.2359C93.9269 17.935 93.5454 19.1485 92.7939 19.9381C92.044 20.7261 90.8971 21.1217 89.2982 21.1217ZM118.06 21.1217C116.445 21.1217 115.299 20.7259 114.553 19.9384C113.806 19.1491 113.432 17.9358 113.432 16.2359C113.432 14.536 113.806 13.3227 114.553 12.5334C115.299 11.746 116.445 11.3501 118.06 11.3501C119.676 11.3501 120.831 11.746 121.585 12.534C122.34 13.3235 122.721 14.5368 122.721 16.2359C122.721 17.9351 122.34 19.1483 121.585 19.9378C120.831 20.7259 119.676 21.1217 118.06 21.1217Z" fill="white" stroke="white" stroke-width="0.321433"/>
<defs>
<linearGradient id="paint0_linear_737_2090" x1="3.07901" y1="1.91401" x2="27.1804" y2="13.7127" gradientUnits="userSpaceOnUse">
<stop stop-color="#FFB0BD"/>
<stop offset="1" stop-color="#FFC2A1"/>
</linearGradient>
</defs>
</svg>
