<svg width="31" height="29" viewBox="0 0 31 29" fill="none" xmlns="http://www.w3.org/2000/svg">
<path d="M29.8415 5.60737H29.4851C29.0342 5.60737 28.5954 5.61658 28.1685 5.63501V2.50094C28.1684 2.45261 28.1573 2.40492 28.1361 2.36148C28.1149 2.31804 28.0842 2.27999 28.0461 2.25018C28.0081 2.22038 27.9637 2.19961 27.9165 2.18944C27.8692 2.17927 27.8203 2.17996 27.7733 2.19147C26.7295 2.4636 25.7007 2.79033 24.6911 3.17031V0.675903C24.691 0.627751 24.68 0.580242 24.659 0.536936C24.6379 0.49363 24.6073 0.45565 24.5695 0.425841C24.5318 0.395884 24.4877 0.374956 24.4407 0.364659C24.3936 0.354361 24.3448 0.354969 24.298 0.366434C24.2289 0.383013 17.5609 2.04917 15.3283 8.00852C13.0957 2.04917 6.42896 0.383013 6.3585 0.366434C6.31172 0.354864 6.26291 0.354203 6.21584 0.364504C6.16876 0.374805 6.12469 0.395791 6.08702 0.425841C6.0492 0.45565 6.01862 0.49363 5.99757 0.536936C5.97651 0.580242 5.96553 0.627751 5.96544 0.675903V3.17031C4.95595 2.79007 3.9271 2.46334 2.88319 2.19147C2.83624 2.17996 2.7873 2.17927 2.74005 2.18944C2.69279 2.19961 2.64847 2.22038 2.61042 2.25018C2.57237 2.27999 2.54158 2.31804 2.52038 2.36148C2.49919 2.40492 2.48814 2.45261 2.48806 2.50094V5.63362C1.94925 5.6106 1.39157 5.60185 0.814995 5.60737C0.731137 5.60828 0.651023 5.64223 0.592047 5.70186C0.533071 5.76148 0.499995 5.84196 0.5 5.92582V25.5557C0.500181 25.6063 0.512386 25.6561 0.535608 25.701C0.55883 25.746 0.592404 25.7848 0.633561 25.8142C0.674718 25.8436 0.722279 25.8628 0.772321 25.8702C0.822363 25.8777 0.873452 25.8731 0.921375 25.8569C0.990453 25.8334 7.99012 23.5372 13.2988 28.5613C13.3125 28.5735 13.327 28.5848 13.3423 28.5951L13.3485 28.5986C13.3636 28.608 13.3796 28.6161 13.3962 28.6227H13.4024C13.4192 28.6293 13.4365 28.6343 13.4542 28.6379H13.4632C13.4814 28.641 13.4999 28.6426 13.5184 28.6428H17.1381C17.1566 28.6426 17.1751 28.641 17.1934 28.6379H17.1982C17.2159 28.6343 17.2332 28.6293 17.25 28.6227H17.2562C17.273 28.6161 17.2892 28.608 17.3046 28.5986L17.3101 28.5951C17.3257 28.585 17.3405 28.5737 17.3543 28.5613C22.663 23.5372 29.6619 25.8334 29.7324 25.8569C29.7803 25.8731 29.8314 25.8777 29.8814 25.8702C29.9315 25.8628 29.979 25.8436 30.0202 25.8142C30.0614 25.7848 30.0949 25.746 30.1182 25.701C30.1414 25.6561 30.1536 25.6063 30.1538 25.5557V5.92582C30.1538 5.84243 30.1211 5.76236 30.0627 5.70282C30.0043 5.64327 29.9249 5.609 29.8415 5.60737ZM27.5309 5.66678C21.9708 6.01701 18.5507 7.78954 17.3916 8.49897C19.9427 5.22952 25.9359 3.36718 27.5309 2.91817V5.66678ZM24.0535 1.10211V3.41553C21.3905 4.47173 18.0161 6.22355 16.4549 8.72486H15.7552C17.4006 3.5378 22.5814 1.56355 24.0535 1.10211ZM3.12565 2.91679C4.72066 3.3658 10.7159 5.22883 13.2663 8.49966C12.1058 7.79369 8.68228 6.02115 3.12565 5.66747V2.91679ZM1.1369 25.1336V6.2422H1.16177C8.27195 6.2422 12.4291 8.71173 13.1993 9.21255V27.619C8.46814 23.6215 2.72224 24.7268 1.1369 25.1336ZM13.8369 9.36245H16.8197V28.0135H13.8369V9.36245Z" fill="url(#paint0_linear_159_146)"/>
<path d="M6.60234 1.10211C8.07508 1.56148 13.2559 3.5302 14.9014 8.72486H14.2016M17.4545 27.6204C22.1856 23.6222 27.9288 24.7233 29.5176 25.1336V6.2422H29.4906M29.8415 5.60737H29.4851C29.0342 5.60737 28.5954 5.61658 28.1685 5.63501V2.50094C28.1684 2.45261 28.1573 2.40492 28.1361 2.36148C28.1149 2.31804 28.0842 2.27999 28.0461 2.25018C28.0081 2.22038 27.9637 2.19961 27.9165 2.18944C27.8692 2.17927 27.8203 2.17996 27.7733 2.19147C26.7295 2.4636 25.7007 2.79033 24.6911 3.17031V0.675904C24.691 0.627751 24.68 0.580242 24.659 0.536936C24.6379 0.49363 24.6073 0.45565 24.5695 0.425841C24.5318 0.395884 24.4877 0.374956 24.4407 0.364659C24.3936 0.354361 24.3448 0.354969 24.298 0.366434C24.2289 0.383013 17.5609 2.04917 15.3283 8.00852C13.0957 2.04917 6.42896 0.383013 6.3585 0.366434C6.31172 0.354864 6.26291 0.354203 6.21584 0.364504C6.16876 0.374805 6.12469 0.395791 6.08702 0.425841C6.0492 0.45565 6.01862 0.49363 5.99757 0.536936C5.97651 0.580242 5.96553 0.627751 5.96544 0.675904V3.17031C4.95595 2.79007 3.9271 2.46334 2.88319 2.19147C2.83624 2.17996 2.7873 2.17927 2.74005 2.18944C2.69279 2.19961 2.64847 2.22038 2.61042 2.25018C2.57237 2.27999 2.54158 2.31804 2.52038 2.36148C2.49919 2.40492 2.48814 2.45261 2.48806 2.50094V5.63362C1.94925 5.6106 1.39157 5.60185 0.814995 5.60737C0.731137 5.60828 0.651023 5.64224 0.592047 5.70186C0.533071 5.76148 0.499995 5.84196 0.5 5.92582V25.5557C0.500181 25.6063 0.512386 25.6561 0.535608 25.701C0.55883 25.746 0.592404 25.7848 0.633561 25.8142C0.674718 25.8436 0.722279 25.8628 0.772321 25.8702C0.822363 25.8777 0.873452 25.8731 0.921375 25.8569C0.990453 25.8334 7.99012 23.5372 13.2988 28.5613C13.3125 28.5735 13.327 28.5848 13.3423 28.5951L13.3485 28.5986C13.3636 28.608 13.3796 28.6161 13.3962 28.6227H13.4024C13.4192 28.6293 13.4365 28.6343 13.4542 28.6379H13.4632C13.4814 28.641 13.4999 28.6426 13.5184 28.6428H17.1381C17.1566 28.6426 17.1751 28.641 17.1934 28.6379H17.1982C17.2159 28.6343 17.2332 28.6293 17.25 28.6227H17.2562C17.273 28.6161 17.2892 28.608 17.3046 28.5986L17.3101 28.5951C17.3257 28.585 17.3405 28.5737 17.3543 28.5613C22.663 23.5372 29.6619 25.8334 29.7324 25.8569C29.7803 25.8731 29.8314 25.8777 29.8814 25.8702C29.9315 25.8628 29.979 25.8436 30.0202 25.8142C30.0614 25.7848 30.0949 25.746 30.1182 25.701C30.1414 25.6561 30.1536 25.6063 30.1538 25.5557V5.92582C30.1538 5.84243 30.1211 5.76236 30.0627 5.70282C30.0043 5.64327 29.9249 5.609 29.8415 5.60737ZM27.5309 5.66678C21.9708 6.01701 18.5507 7.78954 17.3916 8.49897C19.9427 5.22952 25.9359 3.36718 27.5309 2.91817V5.66678ZM24.0535 1.10211V3.41553C21.3905 4.47173 18.0161 6.22355 16.4549 8.72486H15.7552C17.4006 3.5378 22.5814 1.56355 24.0535 1.10211ZM3.12565 2.91679C4.72066 3.3658 10.7159 5.22883 13.2663 8.49966C12.1058 7.79369 8.68228 6.02115 3.12565 5.66747V2.91679ZM1.1369 25.1336V6.2422H1.16177C8.27195 6.2422 12.4291 8.71173 13.1993 9.21255V27.619C8.46814 23.6215 2.72224 24.7268 1.1369 25.1336ZM13.8369 9.36245H16.8197V28.0135H13.8369V9.36245Z" stroke="url(#paint1_linear_159_146)" stroke-width="0.384434" stroke-miterlimit="1.41421" stroke-linejoin="bevel"/>
<defs>
<linearGradient id="paint0_linear_159_146" x1="2.98649" y1="1.4504" x2="31.8118" y2="15.5617" gradientUnits="userSpaceOnUse">
<stop stopColor="#FFB0BD"/>
<stop offset="1" stopColor="#FFC2A1"/>
</linearGradient>
<linearGradient id="paint1_linear_159_146" x1="2.98649" y1="1.4504" x2="31.8118" y2="15.5617" gradientUnits="userSpaceOnUse">
<stop stopColor="#FFB0BD"/>
<stop offset="1" stopColor="#FFC2A1"/>
</linearGradient>
</defs>
</svg>
